<mxfile host="app.diagrams.net" modified="2021-02-28T05:49:44.396Z" agent="5.0 (Windows NT 10.0; Win64; x64) AppleWebKit/537.36 (KHTML, like Gecko) Chrome/88.0.4324.182 Safari/537.36 Edg/88.0.705.81" etag="x4DaISwDU2EdVBZNADMs" version="14.4.3" type="github">
  <diagram id="Vwi1EXBxK2TPIhp4Lb0i" name="Page-1">
    <mxGraphModel dx="-409" dy="1442" grid="1" gridSize="10" guides="1" tooltips="1" connect="1" arrows="1" fold="1" page="1" pageScale="1" pageWidth="1169" pageHeight="827" math="0" shadow="0">
      <root>
        <mxCell id="0" />
        <mxCell id="1" parent="0" />
        <mxCell id="DUE_NzVIsJPlW699FP-4-35" style="edgeStyle=none;rounded=0;orthogonalLoop=1;jettySize=auto;html=1;exitX=0.75;exitY=1;exitDx=0;exitDy=0;entryX=0.009;entryY=0.147;entryDx=0;entryDy=0;entryPerimeter=0;" parent="1" source="DUE_NzVIsJPlW699FP-4-1" target="DUE_NzVIsJPlW699FP-4-5" edge="1">
          <mxGeometry relative="1" as="geometry">
            <Array as="points">
              <mxPoint x="1350" y="-659" />
            </Array>
          </mxGeometry>
        </mxCell>
        <mxCell id="DUE_NzVIsJPlW699FP-4-1" value="ROM" style="rounded=0;whiteSpace=wrap;html=1;" parent="1" vertex="1">
          <mxGeometry x="1260" y="-790" width="120" height="40" as="geometry" />
        </mxCell>
        <mxCell id="DUE_NzVIsJPlW699FP-4-26" style="edgeStyle=orthogonalEdgeStyle;rounded=0;orthogonalLoop=1;jettySize=auto;html=1;exitX=1;exitY=0.5;exitDx=0;exitDy=0;entryX=0.5;entryY=0;entryDx=0;entryDy=0;" parent="1" source="DUE_NzVIsJPlW699FP-4-2" target="DUE_NzVIsJPlW699FP-4-4" edge="1">
          <mxGeometry relative="1" as="geometry" />
        </mxCell>
        <mxCell id="DUE_NzVIsJPlW699FP-4-27" style="edgeStyle=orthogonalEdgeStyle;rounded=0;orthogonalLoop=1;jettySize=auto;html=1;exitX=1;exitY=0.5;exitDx=0;exitDy=0;entryX=0.007;entryY=0.358;entryDx=0;entryDy=0;entryPerimeter=0;" parent="1" source="DUE_NzVIsJPlW699FP-4-2" target="DUE_NzVIsJPlW699FP-4-5" edge="1">
          <mxGeometry relative="1" as="geometry" />
        </mxCell>
        <mxCell id="DUE_NzVIsJPlW699FP-4-2" value="PC" style="rounded=0;whiteSpace=wrap;html=1;" parent="1" vertex="1">
          <mxGeometry x="1340" y="-620" width="40" height="40" as="geometry" />
        </mxCell>
        <mxCell id="DUE_NzVIsJPlW699FP-4-23" style="edgeStyle=orthogonalEdgeStyle;rounded=0;orthogonalLoop=1;jettySize=auto;html=1;exitX=0.5;exitY=0;exitDx=0;exitDy=0;entryX=0.165;entryY=1;entryDx=0;entryDy=0;entryPerimeter=0;" parent="1" source="DUE_NzVIsJPlW699FP-4-3" target="DUE_NzVIsJPlW699FP-4-1" edge="1">
          <mxGeometry relative="1" as="geometry">
            <mxPoint x="1280" y="-740" as="targetPoint" />
          </mxGeometry>
        </mxCell>
        <mxCell id="DUE_NzVIsJPlW699FP-4-25" style="edgeStyle=orthogonalEdgeStyle;rounded=0;orthogonalLoop=1;jettySize=auto;html=1;exitX=0.5;exitY=0;exitDx=0;exitDy=0;entryX=0;entryY=0.5;entryDx=0;entryDy=0;" parent="1" source="DUE_NzVIsJPlW699FP-4-3" target="DUE_NzVIsJPlW699FP-4-2" edge="1">
          <mxGeometry relative="1" as="geometry" />
        </mxCell>
        <mxCell id="DUE_NzVIsJPlW699FP-4-3" value="" style="shape=trapezoid;perimeter=trapezoidPerimeter;whiteSpace=wrap;html=1;fixedSize=1;direction=north;" parent="1" vertex="1">
          <mxGeometry x="1300" y="-460" width="40" height="80" as="geometry" />
        </mxCell>
        <mxCell id="DUE_NzVIsJPlW699FP-4-28" style="edgeStyle=orthogonalEdgeStyle;rounded=0;orthogonalLoop=1;jettySize=auto;html=1;exitX=0;exitY=0.5;exitDx=0;exitDy=0;entryX=0.75;entryY=1;entryDx=0;entryDy=0;" parent="1" source="DUE_NzVIsJPlW699FP-4-4" target="DUE_NzVIsJPlW699FP-4-3" edge="1">
          <mxGeometry relative="1" as="geometry" />
        </mxCell>
        <mxCell id="DUE_NzVIsJPlW699FP-4-4" value="+4" style="whiteSpace=wrap;html=1;aspect=fixed;" parent="1" vertex="1">
          <mxGeometry x="1380" y="-460" width="40" height="40" as="geometry" />
        </mxCell>
        <mxCell id="DUE_NzVIsJPlW699FP-4-36" style="edgeStyle=none;rounded=0;orthogonalLoop=1;jettySize=auto;html=1;exitX=1;exitY=0.5;exitDx=0;exitDy=0;entryX=0;entryY=0.5;entryDx=0;entryDy=0;" parent="1" source="DUE_NzVIsJPlW699FP-4-5" target="DUE_NzVIsJPlW699FP-4-13" edge="1">
          <mxGeometry relative="1" as="geometry">
            <Array as="points">
              <mxPoint x="1520" y="-560" />
            </Array>
          </mxGeometry>
        </mxCell>
        <mxCell id="DUE_NzVIsJPlW699FP-4-37" style="edgeStyle=none;rounded=0;orthogonalLoop=1;jettySize=auto;html=1;exitX=1;exitY=0.5;exitDx=0;exitDy=0;entryX=0;entryY=0.5;entryDx=0;entryDy=0;" parent="1" source="DUE_NzVIsJPlW699FP-4-5" target="DUE_NzVIsJPlW699FP-4-11" edge="1">
          <mxGeometry relative="1" as="geometry">
            <Array as="points">
              <mxPoint x="1520" y="-560" />
              <mxPoint x="1520" y="-610" />
            </Array>
          </mxGeometry>
        </mxCell>
        <mxCell id="DUE_NzVIsJPlW699FP-4-38" style="edgeStyle=none;rounded=0;orthogonalLoop=1;jettySize=auto;html=1;exitX=1;exitY=0.5;exitDx=0;exitDy=0;entryX=0;entryY=0.5;entryDx=0;entryDy=0;" parent="1" source="DUE_NzVIsJPlW699FP-4-5" target="DUE_NzVIsJPlW699FP-4-10" edge="1">
          <mxGeometry relative="1" as="geometry">
            <Array as="points">
              <mxPoint x="1520" y="-560" />
              <mxPoint x="1520" y="-660" />
            </Array>
          </mxGeometry>
        </mxCell>
        <mxCell id="DUE_NzVIsJPlW699FP-4-39" style="edgeStyle=none;rounded=0;orthogonalLoop=1;jettySize=auto;html=1;exitX=1;exitY=0.5;exitDx=0;exitDy=0;entryX=0;entryY=0.5;entryDx=0;entryDy=0;" parent="1" source="DUE_NzVIsJPlW699FP-4-5" target="DUE_NzVIsJPlW699FP-4-15" edge="1">
          <mxGeometry relative="1" as="geometry">
            <Array as="points">
              <mxPoint x="1520" y="-560" />
              <mxPoint x="1520" y="-460" />
            </Array>
          </mxGeometry>
        </mxCell>
        <mxCell id="DUE_NzVIsJPlW699FP-4-40" style="edgeStyle=none;rounded=0;orthogonalLoop=1;jettySize=auto;html=1;exitX=1;exitY=0.5;exitDx=0;exitDy=0;entryX=0;entryY=0.5;entryDx=0;entryDy=0;" parent="1" source="DUE_NzVIsJPlW699FP-4-5" target="DUE_NzVIsJPlW699FP-4-14" edge="1">
          <mxGeometry relative="1" as="geometry">
            <Array as="points">
              <mxPoint x="1520" y="-560" />
              <mxPoint x="1520" y="-510" />
            </Array>
          </mxGeometry>
        </mxCell>
        <mxCell id="DUE_NzVIsJPlW699FP-4-5" value="IF&lt;br&gt;ID" style="rounded=0;whiteSpace=wrap;html=1;" parent="1" vertex="1">
          <mxGeometry x="1460" y="-700" width="40" height="280" as="geometry" />
        </mxCell>
        <mxCell id="DUE_NzVIsJPlW699FP-4-45" style="edgeStyle=none;rounded=0;orthogonalLoop=1;jettySize=auto;html=1;exitX=1;exitY=0.75;exitDx=0;exitDy=0;entryX=0;entryY=0.75;entryDx=0;entryDy=0;entryPerimeter=0;endArrow=none;" parent="1" source="DUE_NzVIsJPlW699FP-4-6" target="DUE_NzVIsJPlW699FP-4-16" edge="1">
          <mxGeometry relative="1" as="geometry">
            <Array as="points">
              <mxPoint x="1780" y="-490" />
              <mxPoint x="1780" y="-390" />
            </Array>
          </mxGeometry>
        </mxCell>
        <mxCell id="DUE_NzVIsJPlW699FP-4-6" value="ID&lt;br&gt;EX" style="rounded=0;whiteSpace=wrap;html=1;" parent="1" vertex="1">
          <mxGeometry x="1700" y="-700" width="40" height="280" as="geometry" />
        </mxCell>
        <mxCell id="DUE_NzVIsJPlW699FP-4-52" style="edgeStyle=none;rounded=0;orthogonalLoop=1;jettySize=auto;html=1;exitX=1;exitY=0.75;exitDx=0;exitDy=0;entryX=0;entryY=0.25;entryDx=0;entryDy=0;entryPerimeter=0;endArrow=none;" parent="1" source="DUE_NzVIsJPlW699FP-4-7" target="DUE_NzVIsJPlW699FP-4-16" edge="1">
          <mxGeometry relative="1" as="geometry">
            <Array as="points">
              <mxPoint x="1980" y="-490" />
              <mxPoint x="1980" y="-370" />
            </Array>
          </mxGeometry>
        </mxCell>
        <mxCell id="DUE_NzVIsJPlW699FP-4-65" style="edgeStyle=none;rounded=0;orthogonalLoop=1;jettySize=auto;html=1;exitX=1;exitY=0.5;exitDx=0;exitDy=0;entryX=0;entryY=0.5;entryDx=0;entryDy=0;endArrow=classic;endFill=1;" parent="1" source="DUE_NzVIsJPlW699FP-4-7" target="DUE_NzVIsJPlW699FP-4-20" edge="1">
          <mxGeometry relative="1" as="geometry" />
        </mxCell>
        <mxCell id="DUE_NzVIsJPlW699FP-4-77" style="edgeStyle=none;rounded=0;sketch=0;jumpStyle=arc;orthogonalLoop=1;jettySize=auto;html=1;entryX=0.5;entryY=1;entryDx=0;entryDy=0;shadow=0;endArrow=classic;endFill=1;exitX=0.714;exitY=-0.014;exitDx=0;exitDy=0;exitPerimeter=0;" parent="1" source="DUE_NzVIsJPlW699FP-4-9" target="DUE_NzVIsJPlW699FP-4-7" edge="1">
          <mxGeometry relative="1" as="geometry">
            <mxPoint x="1900" y="-360" as="sourcePoint" />
          </mxGeometry>
        </mxCell>
        <mxCell id="DUE_NzVIsJPlW699FP-4-7" value="EX&lt;br&gt;MEM" style="rounded=0;whiteSpace=wrap;html=1;" parent="1" vertex="1">
          <mxGeometry x="1880" y="-700" width="40" height="280" as="geometry" />
        </mxCell>
        <mxCell id="DUE_NzVIsJPlW699FP-4-71" style="edgeStyle=none;rounded=0;sketch=0;jumpStyle=arc;orthogonalLoop=1;jettySize=auto;html=1;exitX=1;exitY=0.5;exitDx=0;exitDy=0;entryX=0;entryY=0.75;entryDx=0;entryDy=0;shadow=0;endArrow=classic;endFill=1;" parent="1" source="DUE_NzVIsJPlW699FP-4-8" target="DUE_NzVIsJPlW699FP-4-22" edge="1">
          <mxGeometry relative="1" as="geometry" />
        </mxCell>
        <mxCell id="DUE_NzVIsJPlW699FP-4-78" style="edgeStyle=none;rounded=0;sketch=0;jumpStyle=arc;orthogonalLoop=1;jettySize=auto;html=1;entryX=0.5;entryY=1;entryDx=0;entryDy=0;shadow=0;endArrow=classic;endFill=1;exitX=0.953;exitY=0.005;exitDx=0;exitDy=0;exitPerimeter=0;" parent="1" source="DUE_NzVIsJPlW699FP-4-9" target="DUE_NzVIsJPlW699FP-4-8" edge="1">
          <mxGeometry relative="1" as="geometry">
            <mxPoint x="2100" y="-370" as="sourcePoint" />
          </mxGeometry>
        </mxCell>
        <mxCell id="DUE_NzVIsJPlW699FP-4-8" value="MEM&lt;br&gt;WB" style="rounded=0;whiteSpace=wrap;html=1;" parent="1" vertex="1">
          <mxGeometry x="2080" y="-700" width="40" height="280" as="geometry" />
        </mxCell>
        <mxCell id="DUE_NzVIsJPlW699FP-4-9" value="PipelineController" style="rounded=0;whiteSpace=wrap;html=1;" parent="1" vertex="1">
          <mxGeometry x="1300" y="-340" width="840" height="40" as="geometry" />
        </mxCell>
        <mxCell id="DUE_NzVIsJPlW699FP-4-41" style="edgeStyle=none;rounded=0;orthogonalLoop=1;jettySize=auto;html=1;exitX=1;exitY=0.5;exitDx=0;exitDy=0;" parent="1" source="DUE_NzVIsJPlW699FP-4-10" edge="1">
          <mxGeometry relative="1" as="geometry">
            <mxPoint x="1700" y="-660" as="targetPoint" />
          </mxGeometry>
        </mxCell>
        <mxCell id="DUE_NzVIsJPlW699FP-4-10" value="OperandGen" style="rounded=0;whiteSpace=wrap;html=1;" parent="1" vertex="1">
          <mxGeometry x="1540" y="-680" width="80" height="40" as="geometry" />
        </mxCell>
        <mxCell id="DUE_NzVIsJPlW699FP-4-42" style="edgeStyle=none;rounded=0;orthogonalLoop=1;jettySize=auto;html=1;exitX=1;exitY=0.5;exitDx=0;exitDy=0;entryX=-0.008;entryY=0.32;entryDx=0;entryDy=0;entryPerimeter=0;" parent="1" source="DUE_NzVIsJPlW699FP-4-11" target="DUE_NzVIsJPlW699FP-4-6" edge="1">
          <mxGeometry relative="1" as="geometry" />
        </mxCell>
        <mxCell id="DUE_NzVIsJPlW699FP-4-11" value="&lt;span&gt;RegGen&lt;/span&gt;" style="rounded=0;whiteSpace=wrap;html=1;" parent="1" vertex="1">
          <mxGeometry x="1540" y="-630" width="80" height="40" as="geometry" />
        </mxCell>
        <mxCell id="DUE_NzVIsJPlW699FP-4-43" style="edgeStyle=none;rounded=0;orthogonalLoop=1;jettySize=auto;html=1;exitX=1;exitY=0.5;exitDx=0;exitDy=0;entryX=0;entryY=0.5;entryDx=0;entryDy=0;" parent="1" source="DUE_NzVIsJPlW699FP-4-13" target="DUE_NzVIsJPlW699FP-4-6" edge="1">
          <mxGeometry relative="1" as="geometry" />
        </mxCell>
        <mxCell id="DUE_NzVIsJPlW699FP-4-13" value="FunctGen" style="rounded=0;whiteSpace=wrap;html=1;" parent="1" vertex="1">
          <mxGeometry x="1540" y="-580" width="80" height="40" as="geometry" />
        </mxCell>
        <mxCell id="DUE_NzVIsJPlW699FP-4-44" style="edgeStyle=none;rounded=0;orthogonalLoop=1;jettySize=auto;html=1;exitX=1;exitY=0.5;exitDx=0;exitDy=0;" parent="1" source="DUE_NzVIsJPlW699FP-4-14" edge="1">
          <mxGeometry relative="1" as="geometry">
            <mxPoint x="1700" y="-510" as="targetPoint" />
          </mxGeometry>
        </mxCell>
        <mxCell id="DUE_NzVIsJPlW699FP-4-14" value="MemGen" style="rounded=0;whiteSpace=wrap;html=1;" parent="1" vertex="1">
          <mxGeometry x="1540" y="-530" width="80" height="40" as="geometry" />
        </mxCell>
        <mxCell id="DUE_NzVIsJPlW699FP-4-30" style="edgeStyle=orthogonalEdgeStyle;rounded=0;orthogonalLoop=1;jettySize=auto;html=1;exitX=0.25;exitY=1;exitDx=0;exitDy=0;entryX=0.25;entryY=1;entryDx=0;entryDy=0;" parent="1" source="DUE_NzVIsJPlW699FP-4-15" target="DUE_NzVIsJPlW699FP-4-3" edge="1">
          <mxGeometry relative="1" as="geometry">
            <mxPoint x="1341" y="-400" as="targetPoint" />
            <Array as="points">
              <mxPoint x="1560" y="-400" />
            </Array>
          </mxGeometry>
        </mxCell>
        <mxCell id="DUE_NzVIsJPlW699FP-4-31" style="edgeStyle=orthogonalEdgeStyle;rounded=0;orthogonalLoop=1;jettySize=auto;html=1;exitX=0.75;exitY=1;exitDx=0;exitDy=0;" parent="1" source="DUE_NzVIsJPlW699FP-4-15" edge="1">
          <mxGeometry relative="1" as="geometry">
            <mxPoint x="1340" y="-388" as="targetPoint" />
            <Array as="points">
              <mxPoint x="1600" y="-388" />
            </Array>
          </mxGeometry>
        </mxCell>
        <mxCell id="DUE_NzVIsJPlW699FP-4-15" value="BranchGen" style="rounded=0;whiteSpace=wrap;html=1;" parent="1" vertex="1">
          <mxGeometry x="1540" y="-480" width="80" height="40" as="geometry" />
        </mxCell>
        <mxCell id="DUE_NzVIsJPlW699FP-4-53" style="edgeStyle=none;rounded=0;orthogonalLoop=1;jettySize=auto;html=1;entryX=0.381;entryY=0;entryDx=0;entryDy=0;entryPerimeter=0;exitX=1;exitY=0.5;exitDx=0;exitDy=0;exitPerimeter=0;anchorPointDirection=1;" parent="1" source="DUE_NzVIsJPlW699FP-4-16" target="DUE_NzVIsJPlW699FP-4-9" edge="1">
          <mxGeometry relative="1" as="geometry">
            <mxPoint x="1618" y="-380" as="sourcePoint" />
            <Array as="points">
              <mxPoint x="1620" y="-380" />
            </Array>
          </mxGeometry>
        </mxCell>
        <mxCell id="DUE_NzVIsJPlW699FP-4-16" value="" style="verticalLabelPosition=bottom;shadow=0;dashed=0;align=center;html=1;verticalAlign=top;shape=mxgraph.electrical.logic_gates.logic_gate;operation=or;direction=west;" parent="1" vertex="1">
          <mxGeometry x="1620" y="-400" width="80" height="40" as="geometry" />
        </mxCell>
        <mxCell id="DUE_NzVIsJPlW699FP-4-17" value="ALU" style="shape=trapezoid;perimeter=trapezoidPerimeter;whiteSpace=wrap;html=1;fixedSize=1;direction=south;" parent="1" vertex="1">
          <mxGeometry x="1780" y="-660" width="40" height="120" as="geometry" />
        </mxCell>
        <mxCell id="DUE_NzVIsJPlW699FP-4-19" value="RAM" style="rounded=0;whiteSpace=wrap;html=1;" parent="1" vertex="1">
          <mxGeometry x="1960" y="-800" width="120" height="40" as="geometry" />
        </mxCell>
        <mxCell id="DUE_NzVIsJPlW699FP-4-20" value="&lt;span&gt;AddrGen&lt;/span&gt;" style="rounded=0;whiteSpace=wrap;html=1;" parent="1" vertex="1">
          <mxGeometry x="1960" y="-580" width="80" height="40" as="geometry" />
        </mxCell>
        <mxCell id="DUE_NzVIsJPlW699FP-4-21" value="ReadProxy" style="rounded=0;whiteSpace=wrap;html=1;" parent="1" vertex="1">
          <mxGeometry x="2160" y="-700" width="120" height="40" as="geometry" />
        </mxCell>
        <mxCell id="DUE_NzVIsJPlW699FP-4-72" style="edgeStyle=none;rounded=0;sketch=0;jumpStyle=arc;orthogonalLoop=1;jettySize=auto;html=1;exitX=0.5;exitY=0;exitDx=0;exitDy=0;entryX=0.5;entryY=1;entryDx=0;entryDy=0;shadow=0;endArrow=classic;endFill=1;" parent="1" source="DUE_NzVIsJPlW699FP-4-22" target="DUE_NzVIsJPlW699FP-4-21" edge="1">
          <mxGeometry relative="1" as="geometry" />
        </mxCell>
        <mxCell id="DUE_NzVIsJPlW699FP-4-22" value="RegFile" style="rounded=0;whiteSpace=wrap;html=1;" parent="1" vertex="1">
          <mxGeometry x="2160" y="-620" width="120" height="80" as="geometry" />
        </mxCell>
        <mxCell id="DUE_NzVIsJPlW699FP-4-33" value="" style="endArrow=classic;html=1;entryX=0;entryY=0.5;entryDx=0;entryDy=0;" parent="1" target="DUE_NzVIsJPlW699FP-4-3" edge="1">
          <mxGeometry width="50" height="50" relative="1" as="geometry">
            <mxPoint x="1320" y="-340" as="sourcePoint" />
            <mxPoint x="1370" y="-390" as="targetPoint" />
          </mxGeometry>
        </mxCell>
        <mxCell id="DUE_NzVIsJPlW699FP-4-61" value="" style="endArrow=classic;html=1;entryX=0.339;entryY=1;entryDx=0;entryDy=0;entryPerimeter=0;" parent="1" target="DUE_NzVIsJPlW699FP-4-17" edge="1">
          <mxGeometry width="50" height="50" relative="1" as="geometry">
            <mxPoint x="1740" y="-620" as="sourcePoint" />
            <mxPoint x="1790" y="-670" as="targetPoint" />
          </mxGeometry>
        </mxCell>
        <mxCell id="DUE_NzVIsJPlW699FP-4-62" value="" style="endArrow=classic;html=1;entryX=0.339;entryY=1;entryDx=0;entryDy=0;entryPerimeter=0;" parent="1" edge="1">
          <mxGeometry width="50" height="50" relative="1" as="geometry">
            <mxPoint x="1740" y="-580.6800000000001" as="sourcePoint" />
            <mxPoint x="1780" y="-580" as="targetPoint" />
          </mxGeometry>
        </mxCell>
        <mxCell id="DUE_NzVIsJPlW699FP-4-64" value="" style="endArrow=classic;html=1;exitX=0.5;exitY=0;exitDx=0;exitDy=0;" parent="1" source="DUE_NzVIsJPlW699FP-4-17" edge="1">
          <mxGeometry width="50" height="50" relative="1" as="geometry">
            <mxPoint x="1840" y="-600" as="sourcePoint" />
            <mxPoint x="1880" y="-600.29" as="targetPoint" />
          </mxGeometry>
        </mxCell>
        <mxCell id="DUE_NzVIsJPlW699FP-4-66" style="edgeStyle=none;rounded=0;orthogonalLoop=1;jettySize=auto;html=1;exitX=0.5;exitY=0;exitDx=0;exitDy=0;endArrow=classic;endFill=1;jumpStyle=none;sketch=0;shadow=0;entryX=0.333;entryY=1;entryDx=0;entryDy=0;entryPerimeter=0;" parent="1" source="DUE_NzVIsJPlW699FP-4-20" target="DUE_NzVIsJPlW699FP-4-19" edge="1">
          <mxGeometry relative="1" as="geometry">
            <mxPoint x="2000" y="-740" as="targetPoint" />
          </mxGeometry>
        </mxCell>
        <mxCell id="DUE_NzVIsJPlW699FP-4-69" value="" style="endArrow=classic;html=1;shadow=0;exitX=0.75;exitY=1;exitDx=0;exitDy=0;entryX=0;entryY=0.143;entryDx=0;entryDy=0;entryPerimeter=0;rounded=0;" parent="1" source="DUE_NzVIsJPlW699FP-4-19" target="DUE_NzVIsJPlW699FP-4-8" edge="1">
          <mxGeometry width="50" height="50" relative="1" as="geometry">
            <mxPoint x="2027" y="-640" as="sourcePoint" />
            <mxPoint x="2120" y="-650" as="targetPoint" />
            <Array as="points">
              <mxPoint x="2050" y="-660" />
            </Array>
          </mxGeometry>
        </mxCell>
        <mxCell id="DUE_NzVIsJPlW699FP-4-67" style="edgeStyle=none;rounded=0;orthogonalLoop=1;jettySize=auto;html=1;exitX=0.75;exitY=0;exitDx=0;exitDy=0;entryX=0.5;entryY=0;entryDx=0;entryDy=0;endArrow=classic;endFill=1;jumpStyle=arc;" parent="1" source="DUE_NzVIsJPlW699FP-4-21" target="DUE_NzVIsJPlW699FP-4-10" edge="1">
          <mxGeometry relative="1" as="geometry">
            <Array as="points">
              <mxPoint x="2250" y="-740" />
              <mxPoint x="1580" y="-740" />
            </Array>
          </mxGeometry>
        </mxCell>
        <mxCell id="DUE_NzVIsJPlW699FP-4-73" style="edgeStyle=none;rounded=0;sketch=0;jumpStyle=arc;orthogonalLoop=1;jettySize=auto;html=1;entryX=0.5;entryY=0;entryDx=0;entryDy=0;shadow=0;endArrow=classic;endFill=1;" parent="1" target="DUE_NzVIsJPlW699FP-4-21" edge="1">
          <mxGeometry relative="1" as="geometry">
            <mxPoint x="1840" y="-600" as="sourcePoint" />
            <Array as="points">
              <mxPoint x="1840" y="-730" />
              <mxPoint x="2220" y="-730" />
            </Array>
          </mxGeometry>
        </mxCell>
        <mxCell id="DUE_NzVIsJPlW699FP-4-74" style="edgeStyle=none;rounded=0;sketch=0;jumpStyle=arc;orthogonalLoop=1;jettySize=auto;html=1;exitX=1;exitY=0.25;exitDx=0;exitDy=0;entryX=0.25;entryY=0;entryDx=0;entryDy=0;shadow=0;endArrow=classic;endFill=1;" parent="1" source="DUE_NzVIsJPlW699FP-4-7" target="DUE_NzVIsJPlW699FP-4-21" edge="1">
          <mxGeometry relative="1" as="geometry">
            <Array as="points">
              <mxPoint x="1960" y="-630" />
              <mxPoint x="1960" y="-720" />
              <mxPoint x="2190" y="-720" />
            </Array>
          </mxGeometry>
        </mxCell>
        <mxCell id="DUE_NzVIsJPlW699FP-4-75" style="edgeStyle=none;rounded=0;sketch=0;jumpStyle=arc;orthogonalLoop=1;jettySize=auto;html=1;entryX=0.5;entryY=1;entryDx=0;entryDy=0;shadow=0;endArrow=classic;endFill=1;exitX=0.214;exitY=0;exitDx=0;exitDy=0;exitPerimeter=0;" parent="1" source="DUE_NzVIsJPlW699FP-4-9" target="DUE_NzVIsJPlW699FP-4-5" edge="1">
          <mxGeometry relative="1" as="geometry">
            <mxPoint x="1480" y="-360" as="sourcePoint" />
          </mxGeometry>
        </mxCell>
        <mxCell id="DUE_NzVIsJPlW699FP-4-76" style="edgeStyle=none;rounded=0;sketch=0;jumpStyle=arc;orthogonalLoop=1;jettySize=auto;html=1;shadow=0;endArrow=classic;endFill=1;exitX=0.5;exitY=0;exitDx=0;exitDy=0;entryX=0.5;entryY=1;entryDx=0;entryDy=0;" parent="1" source="DUE_NzVIsJPlW699FP-4-9" target="DUE_NzVIsJPlW699FP-4-6" edge="1">
          <mxGeometry relative="1" as="geometry" />
        </mxCell>
        <mxCell id="MmGtoHiQ9Y3kxAFWbWzb-1" value="PipelineController" style="rounded=0;whiteSpace=wrap;html=1;" vertex="1" parent="1">
          <mxGeometry x="1340" y="690" width="840" height="40" as="geometry" />
        </mxCell>
        <mxCell id="MmGtoHiQ9Y3kxAFWbWzb-2" value="PC" style="rounded=0;whiteSpace=wrap;html=1;" vertex="1" parent="1">
          <mxGeometry x="1360" y="360" width="80" height="40" as="geometry" />
        </mxCell>
        <mxCell id="MmGtoHiQ9Y3kxAFWbWzb-3" value="IF&lt;br&gt;|&lt;br&gt;ID" style="rounded=0;whiteSpace=wrap;html=1;" vertex="1" parent="1">
          <mxGeometry x="1480" y="240" width="40" height="320" as="geometry" />
        </mxCell>
        <mxCell id="MmGtoHiQ9Y3kxAFWbWzb-4" value="ID&lt;br&gt;|&lt;br&gt;EX" style="rounded=0;whiteSpace=wrap;html=1;" vertex="1" parent="1">
          <mxGeometry x="1680" y="240" width="40" height="320" as="geometry" />
        </mxCell>
        <mxCell id="MmGtoHiQ9Y3kxAFWbWzb-5" value="EX&lt;br&gt;|&lt;br&gt;MEM" style="rounded=0;whiteSpace=wrap;html=1;" vertex="1" parent="1">
          <mxGeometry x="1880" y="240" width="40" height="320" as="geometry" />
        </mxCell>
        <mxCell id="MmGtoHiQ9Y3kxAFWbWzb-6" value="MEM&lt;br&gt;|&lt;br&gt;WB" style="rounded=0;whiteSpace=wrap;html=1;" vertex="1" parent="1">
          <mxGeometry x="2080" y="240" width="40" height="320" as="geometry" />
        </mxCell>
      </root>
    </mxGraphModel>
  </diagram>
</mxfile>
